# xmcd
#
# Track frame offsets:
#  150
#  31932
#  52501
#  77043
#  120058
#  155606
#  190669
#  228341
#  276066
#  295348
#  300681
#
# Disc length: 4360 seconds
#
# Revision: 0
# Processed by: cddbd v1.5.2PL0 Copyright (c) Steve Scherf et al.
# Submitted via: Collectorz.com_Music_Collector 6.11
#
DISCID=7e11060b
DTITLE=Eric Clapton - No Reason To Cry Sessions (2CDs) [CD1)
DYEAR=1976
DGENRE=Blues
TTITLE0=Carnival
TTITLE1=Right Now (Take 1)
TTITLE2=Right Now (Take 2)
TTITLE3=It's Eric Clapton Birthday
TTITLE4=Who Do You Love
TTITLE5=Stormy Monday
TTITLE6=Hard Times
TTITLE7=Jam
TTITLE8=Stepping Out
TTITLE9=Adios Mi Corason
TTITLE10=The Water Is Wide
EXTD=
EXTT0=
EXTT1=
EXTT2=
EXTT3=
EXTT4=
EXTT5=
EXTT6=
EXTT7=
EXTT8=
EXTT9=
EXTT10=
PLAYORDER=
